<svg width="52" height="52" viewBox="0 0 52 52" fill="none" xmlns="http://www.w3.org/2000/svg">
<g id="Iconsax/Linear/image">
<path id="Vector" d="M46.9733 36.7468L40.1917 20.9085C37.895 15.5352 33.67 15.3185 30.8317 20.4318L26.7367 27.8202C24.6567 31.5685 20.7783 31.8935 18.0917 28.5352L17.615 27.9285C14.82 24.4185 10.8767 24.8518 8.86167 28.8602L5.135 36.3352C2.51334 41.5352 6.305 47.6668 12.1117 47.6668H39.7583C45.3917 47.6668 49.1833 41.9252 46.9733 36.7468ZM15.1017 17.3335C16.8256 17.3335 18.4789 16.6487 19.6979 15.4297C20.9168 14.2107 21.6017 12.5574 21.6017 10.8335C21.6017 9.10959 20.9168 7.45629 19.6979 6.2373C18.4789 5.01832 16.8256 4.3335 15.1017 4.3335C13.3778 4.3335 11.7245 5.01832 10.5055 6.2373C9.28649 7.45629 8.60167 9.10959 8.60167 10.8335C8.60167 12.5574 9.28649 14.2107 10.5055 15.4297C11.7245 16.6487 13.3778 17.3335 15.1017 17.3335Z" stroke="#CCCCCC" stroke-width="2" stroke-linecap="round" stroke-linejoin="round"/>
</g>
</svg>
